<svg width="33" height="33" viewBox="0 0 33 33" fill="none" xmlns="http://www.w3.org/2000/svg">
<path d="M3.5 8.248V26.3587C8.21867 23.7547 12.8153 24.2033 16.5 26.3587C20.498 24.16 24.8427 23.9567 29.5 26.3587V8.248C27.4957 7.19346 25.2648 6.64242 23 6.64242C20.7352 6.64242 18.5043 7.19346 16.5 8.248C12.8593 7.13267 10.0033 5.32867 3.5 8.248Z" stroke="white" stroke-width="0.666667" stroke-linecap="round" stroke-linejoin="round"/>
<path d="M18.9561 13.5253C21.3685 12.5159 24.0457 12.3269 26.5761 12.9873M18.9561 19.8013C21.3685 18.7919 24.0457 18.6029 26.5761 19.2633M18.9561 16.5733C21.3685 15.5639 24.0457 15.3749 26.5761 16.0353" stroke="white" stroke-width="0.666667" stroke-linecap="round" stroke-linejoin="round"/>
<path d="M10.5 12.5V20.5M6.5 16.5H14.5" stroke="white"/>
</svg>
