<svg width="36" height="36" viewBox="0 0 36 36" fill="none" xmlns="http://www.w3.org/2000/svg">
<path fill-rule="evenodd" clip-rule="evenodd" d="M33 18C33 26.2845 26.2845 33 18 33C9.7155 33 3 26.2845 3 18C3 9.7155 9.7155 3 18 3C26.2845 3 33 9.7155 33 18ZM10.9395 16.9395L16.9395 10.9395C17.2208 10.6583 17.6023 10.5003 18 10.5003C18.3977 10.5003 18.7792 10.6583 19.0605 10.9395L25.0605 16.9395C25.3337 17.2224 25.4849 17.6013 25.4815 17.9946C25.4781 18.3879 25.3203 18.7641 25.0422 19.0422C24.7641 19.3203 24.3879 19.4781 23.9946 19.4815C23.6013 19.4849 23.2224 19.3337 22.9395 19.0605L19.5 15.621V24C19.5 24.3978 19.342 24.7794 19.0607 25.0607C18.7794 25.342 18.3978 25.5 18 25.5C17.6022 25.5 17.2206 25.342 16.9393 25.0607C16.658 24.7794 16.5 24.3978 16.5 24V15.621L13.0605 19.0605C12.7776 19.3337 12.3987 19.4849 12.0054 19.4815C11.6121 19.4781 11.2359 19.3203 10.9578 19.0422C10.6797 18.7641 10.5219 18.3879 10.5185 17.9946C10.5151 17.6013 10.6663 17.2224 10.9395 16.9395Z" fill="#FFF3F3"/>
</svg>
