<svg width="28" height="28" viewBox="0 0 28 28" fill="none" xmlns="http://www.w3.org/2000/svg">
<path d="M25 27H6C5.20435 27 4.44129 26.6839 3.87868 26.1213C3.31607 25.5587 3 24.7956 3 24C3 23.2044 3.31607 22.4413 3.87868 21.8787C4.44129 21.3161 5.20435 21 6 21H23M23 21C23.5304 21 24.0391 20.7893 24.4142 20.4142C24.7893 20.0391 25 19.5304 25 19V3C25 2.46957 24.7893 1.96086 24.4142 1.58579C24.0391 1.21071 23.5304 1 23 1H6C5.21802 0.999722 4.46684 1.30479 3.90647 1.85021C3.34611 2.39563 3.02085 3.1383 3 3.92V23.92M23 21V27" stroke="#FFF3F3" stroke-width="2" stroke-linecap="round" stroke-linejoin="round"/>
<path d="M16.1024 10.004H20.7344L15.8144 16.95H21.0224M7.02441 11.972L9.15641 5.574C9.2094 5.41436 9.31136 5.27548 9.44779 5.1771C9.58423 5.07872 9.74821 5.02585 9.91641 5.026C10.2624 5.026 10.5704 5.246 10.6804 5.574L12.8124 11.972M7.79641 9.656H12.0404" stroke="#FFF3F3" stroke-width="2" stroke-linecap="round" stroke-linejoin="round"/>
</svg>
