<svg width="48" height="48" viewBox="0 0 48 48" fill="none" xmlns="http://www.w3.org/2000/svg">
<path d="M36.6922 38.9999H14.7691C13.8511 38.9999 12.9706 38.6352 12.3215 37.9861C11.6723 37.3369 11.3076 36.4565 11.3076 35.5384C11.3076 34.6204 11.6723 33.7399 12.3215 33.0907C12.9706 32.4416 13.8511 32.0769 14.7691 32.0769H34.3845M34.3845 32.0769C34.9965 32.0769 35.5835 31.8337 36.0163 31.401C36.4491 30.9682 36.6922 30.3812 36.6922 29.7692V11.3077C36.6922 10.6957 36.4491 10.1087 36.0163 9.67591C35.5835 9.24313 34.9965 9 34.3845 9H14.7691C13.8669 8.99968 13.0001 9.35168 12.3535 9.98101C11.707 10.6103 11.3317 11.4673 11.3076 12.3692V35.4461M34.3845 32.0769V38.9999" stroke="#FFF3F3" stroke-width="2.09128" stroke-linecap="round" stroke-linejoin="round"/>
<path d="M26.4243 19.3893H31.7689L26.092 27.4039H32.1012M15.9497 21.6601L18.4097 14.2778C18.4708 14.0936 18.5885 13.9334 18.7459 13.8198C18.9033 13.7063 19.0925 13.6453 19.2866 13.6455C19.6859 13.6455 20.0412 13.8994 20.1682 14.2778L22.6282 21.6601M16.8405 18.9878H21.7374" stroke="#FFF3F3" stroke-width="2.09128" stroke-linecap="round" stroke-linejoin="round"/>
</svg>
