<svg width="36" height="36" viewBox="0 0 36 36" fill="none" xmlns="http://www.w3.org/2000/svg">
<path fill-rule="evenodd" clip-rule="evenodd" d="M7.5 4.5C6.70435 4.5 5.94129 4.81607 5.37868 5.37868C4.81607 5.94129 4.5 6.70435 4.5 7.5V28.5C4.5 29.2957 4.81607 30.0587 5.37868 30.6213C5.94129 31.184 6.70435 31.5 7.5 31.5H22.5C23.2957 31.5 24.0587 31.184 24.6213 30.6213C25.1839 30.0587 25.5 29.2957 25.5 28.5V7.5C25.5 6.70435 25.1839 5.94129 24.6213 5.37868C24.0587 4.81607 23.2957 4.5 22.5 4.5H7.5ZM6 7.5C6 7.10218 6.15804 6.72065 6.43934 6.43934C6.72065 6.15804 7.10218 6 7.5 6H22.5C22.8978 6 23.2794 6.15804 23.5607 6.43934C23.842 6.72065 24 7.10218 24 7.5V28.5C24 28.8978 23.842 29.2794 23.5607 29.5607C23.2794 29.842 22.8978 30 22.5 30H7.5C7.10218 30 6.72065 29.842 6.43934 29.5607C6.15804 29.2794 6 28.8978 6 28.5V7.5ZM27 12C27 11.4033 27.2371 10.831 27.659 10.409C28.081 9.98706 28.6533 9.75001 29.25 9.75C29.8468 9.75 30.4191 9.98706 30.841 10.409C31.263 10.831 31.5 11.4033 31.5 12V27.2273L29.25 30.6023L27 27.2273V12ZM29.25 11.25C29.0511 11.25 28.8603 11.329 28.7197 11.4697C28.579 11.6103 28.5 11.8011 28.5 12V13.5H30V12C30 11.8011 29.921 11.6103 29.7804 11.4697C29.6397 11.329 29.4489 11.25 29.25 11.25ZM29.25 27.8978L28.5 26.7728V15H30V26.7728L29.25 27.8978Z" fill="#FFF3F3"/>
<path d="M14.999 11.25C14.999 11.0511 15.078 10.8603 15.2187 10.7197C15.3593 10.579 15.5501 10.5 15.749 10.5H21.749C21.9479 10.5 22.1387 10.579 22.2794 10.7197C22.42 10.8603 22.499 11.0511 22.499 11.25C22.499 11.4489 22.42 11.6397 22.2794 11.7803C22.1387 11.921 21.9479 12 21.749 12H15.749C15.5501 12 15.3593 11.921 15.2187 11.7803C15.078 11.6397 14.999 11.4489 14.999 11.25ZM15.749 13.5C15.5501 13.5 15.3593 13.579 15.2187 13.7197C15.078 13.8603 14.999 14.0511 14.999 14.25C14.999 14.4489 15.078 14.6397 15.2187 14.7803C15.3593 14.921 15.5501 15 15.749 15H21.749C21.9479 15 22.1387 14.921 22.2794 14.7803C22.42 14.6397 22.499 14.4489 22.499 14.25C22.499 14.0511 22.42 13.8603 22.2794 13.7197C22.1387 13.579 21.9479 13.5 21.749 13.5H15.749ZM14.999 21C14.999 20.8011 15.078 20.6103 15.2187 20.4697C15.3593 20.329 15.5501 20.25 15.749 20.25H21.749C21.9479 20.25 22.1387 20.329 22.2794 20.4697C22.42 20.6103 22.499 20.8011 22.499 21C22.499 21.1989 22.42 21.3897 22.2794 21.5303C22.1387 21.671 21.9479 21.75 21.749 21.75H15.749C15.5501 21.75 15.3593 21.671 15.2187 21.5303C15.078 21.3897 14.999 21.1989 14.999 21ZM15.749 23.25C15.5501 23.25 15.3593 23.329 15.2187 23.4697C15.078 23.6103 14.999 23.8011 14.999 24C14.999 24.1989 15.078 24.3897 15.2187 24.5303C15.3593 24.671 15.5501 24.75 15.749 24.75H21.749C21.9479 24.75 22.1387 24.671 22.2794 24.5303C22.42 24.3897 22.499 24.1989 22.499 24C22.499 23.8011 22.42 23.6103 22.2794 23.4697C22.1387 23.329 21.9479 23.25 21.749 23.25H15.749Z" fill="#FFF3F3"/>
<path fill-rule="evenodd" clip-rule="evenodd" d="M7.5 20.2499C7.5 20.051 7.57902 19.8602 7.71967 19.7195C7.86032 19.5789 8.05109 19.4999 8.25 19.4999H12C12.1989 19.4999 12.3897 19.5789 12.5303 19.7195C12.671 19.8602 12.75 20.051 12.75 20.2499V23.9999C12.75 24.1988 12.671 24.3896 12.5303 24.5302C12.3897 24.6709 12.1989 24.7499 12 24.7499H8.25C8.05109 24.7499 7.86032 24.6709 7.71967 24.5302C7.57902 24.3896 7.5 24.1988 7.5 23.9999V20.2499ZM9 20.9999V23.2499H11.25V20.9999H9Z" fill="#FFF3F3"/>
<path d="M13.2798 11.7802C13.4164 11.6387 13.492 11.4493 13.4903 11.2526C13.4886 11.056 13.4097 10.8679 13.2707 10.7288C13.1316 10.5898 12.9435 10.5109 12.7469 10.5092C12.5502 10.5075 12.3608 10.5831 12.2193 10.7197L9.74958 13.1894L8.77982 12.2197C8.63837 12.0831 8.44892 12.0075 8.25227 12.0092C8.05563 12.0109 7.86752 12.0898 7.72846 12.2288C7.5894 12.3679 7.51053 12.556 7.50882 12.7526C7.50711 12.9493 7.5827 13.1387 7.71932 13.2802L9.74958 15.3104L13.2798 11.7802Z" fill="#FFF3F3"/>
</svg>
