<svg width="25" height="25" viewBox="0 0 25 25" fill="none" xmlns="http://www.w3.org/2000/svg">
<path d="M12.25 2.5C10.9368 2.5 9.63642 2.75866 8.42317 3.2612C7.20991 3.76375 6.10752 4.50035 5.17893 5.42893C3.30357 7.3043 2.25 9.84784 2.25 12.5C2.25 16.92 5.12 20.67 9.09 22C9.59 22.08 9.75 21.77 9.75 21.5V19.81C6.98 20.41 6.39 18.47 6.39 18.47C5.93 17.31 5.28 17 5.28 17C4.37 16.38 5.35 16.4 5.35 16.4C6.35 16.47 6.88 17.43 6.88 17.43C7.75 18.95 9.22 18.5 9.79 18.26C9.88 17.61 10.14 17.17 10.42 16.92C8.2 16.67 5.87 15.81 5.87 12C5.87 10.89 6.25 10 6.9 9.29C6.8 9.04 6.45 8 7 6.65C7 6.65 7.84 6.38 9.75 7.67C10.54 7.45 11.4 7.34 12.25 7.34C13.1 7.34 13.96 7.45 14.75 7.67C16.66 6.38 17.5 6.65 17.5 6.65C18.05 8 17.7 9.04 17.6 9.29C18.25 10 18.63 10.89 18.63 12C18.63 15.82 16.29 16.66 14.06 16.91C14.42 17.22 14.75 17.83 14.75 18.76V21.5C14.75 21.77 14.91 22.09 15.42 22C19.39 20.66 22.25 16.92 22.25 12.5C22.25 11.1868 21.9913 9.88642 21.4888 8.67317C20.9862 7.45991 20.2497 6.35752 19.3211 5.42893C18.3925 4.50035 17.2901 3.76375 16.0768 3.2612C14.8636 2.75866 13.5632 2.5 12.25 2.5Z" fill="#FFF3F3"/>
</svg>
