<svg width="24" height="24" viewBox="0 0 24 24" fill="none" xmlns="http://www.w3.org/2000/svg">
<path d="M11.9997 3.99998C14.0997 3.99998 16.0997 4.79998 17.5997 6.29998C20.6997 9.39998 20.6997 14.5 17.5997 17.6C15.7997 19.5 13.2997 20.2 10.8997 19.9L11.3997 17.9C13.0997 18.1 14.8997 17.5 16.1997 16.2C18.4997 13.9 18.4997 10.1 16.1997 7.69998C15.0997 6.59998 13.4997 5.99998 11.9997 5.99998V10.6L6.99966 5.59998L11.9997 0.599976V3.99998ZM6.29966 17.6C3.69966 15 3.29966 11 5.09966 7.89998L6.59966 9.39997C5.49966 11.6 5.89966 14.4 7.79966 16.2C8.29966 16.7 8.89966 17.1 9.59966 17.4L8.99966 19.4C7.99966 19 7.09966 18.4 6.29966 17.6Z" fill="#FFF3F3"/>
</svg>
