<svg width="26" height="26" viewBox="0 0 26 26" fill="none" xmlns="http://www.w3.org/2000/svg">
<path d="M23.9778 26L14.8778 16.9C14.1556 17.4778 13.325 17.9352 12.3861 18.2722C11.4472 18.6093 10.4482 18.7778 9.3889 18.7778C6.76482 18.7778 4.54423 17.8688 2.72711 16.0507C0.910002 14.2326 0.000963728 12.012 7.64257e-07 9.3889C-0.0009622 6.76579 0.908076 4.54519 2.72711 2.72711C4.54615 0.909038 6.76675 0 9.3889 0C12.0111 0 14.2321 0.909038 16.0521 2.72711C17.8721 4.54519 18.7807 6.76579 18.7778 9.3889C18.7778 10.4482 18.6093 11.4472 18.2722 12.3861C17.9352 13.325 17.4778 14.1556 16.9 14.8778L26 23.9778L23.9778 26ZM9.3889 15.8889C11.1945 15.8889 12.7294 15.2572 13.9938 13.9938C15.2582 12.7304 15.8899 11.1954 15.8889 9.3889C15.8879 7.58238 15.2562 6.0479 13.9938 4.78545C12.7313 3.523 11.1964 2.89082 9.3889 2.88889C7.58142 2.88697 6.04693 3.51915 4.78545 4.78545C3.52397 6.05175 2.89178 7.58623 2.88889 9.3889C2.886 11.1916 3.51819 12.7265 4.78545 13.9938C6.05271 15.2611 7.58719 15.8928 9.3889 15.8889Z" fill="#FFF3F3"/>
</svg>
