<svg width="36" height="36" viewBox="0 0 36 36" fill="none" xmlns="http://www.w3.org/2000/svg">
<path d="M16.2377 33C15.5627 33 14.9817 32.775 14.4947 32.325C14.0077 31.875 13.7137 31.325 13.6127 30.675L13.2752 28.2C12.9502 28.075 12.6442 27.925 12.3572 27.75C12.0702 27.575 11.7887 27.3875 11.5127 27.1875L9.18771 28.1625C8.56271 28.4375 7.93771 28.4625 7.31271 28.2375C6.68771 28.0125 6.20021 27.6125 5.85021 27.0375L4.08771 23.9625C3.73771 23.3875 3.63771 22.775 3.78771 22.125C3.93771 21.475 4.27521 20.9375 4.80021 20.5125L6.78771 19.0125C6.76271 18.8375 6.75021 18.6685 6.75021 18.5055V17.493C6.75021 17.331 6.76271 17.1625 6.78771 16.9875L4.80021 15.4875C4.27521 15.0625 3.93771 14.525 3.78771 13.875C3.63771 13.225 3.73771 12.6125 4.08771 12.0375L5.85021 8.9625C6.20021 8.3875 6.68771 7.9875 7.31271 7.7625C7.93771 7.5375 8.56271 7.5625 9.18771 7.8375L11.5127 8.8125C11.7877 8.6125 12.0752 8.425 12.3752 8.25C12.6752 8.075 12.9752 7.925 13.2752 7.8L13.6127 5.325C13.7127 4.675 14.0067 4.125 14.4947 3.675C14.9827 3.225 15.5637 3 16.2377 3H19.7627C20.4377 3 21.0192 3.225 21.5072 3.675C21.9952 4.125 22.2887 4.675 22.3877 5.325L22.7252 7.8C23.0502 7.925 23.3567 8.075 23.6447 8.25C23.9327 8.425 24.2137 8.6125 24.4877 8.8125L26.8127 7.8375C27.4377 7.5625 28.0627 7.5375 28.6877 7.7625C29.3127 7.9875 29.8002 8.3875 30.1502 8.9625L31.9127 12.0375C32.2627 12.6125 32.3627 13.225 32.2127 13.875C32.0627 14.525 31.7252 15.0625 31.2002 15.4875L29.2127 16.9875C29.2377 17.1625 29.2502 17.3315 29.2502 17.4945V18.5055C29.2502 18.6685 29.2252 18.8375 29.1752 19.0125L31.1627 20.5125C31.6877 20.9375 32.0252 21.475 32.1752 22.125C32.3252 22.775 32.2252 23.3875 31.8752 23.9625L30.0752 27.0375C29.7252 27.6125 29.2377 28.0125 28.6127 28.2375C27.9877 28.4625 27.3627 28.4375 26.7377 28.1625L24.4877 27.1875C24.2127 27.3875 23.9252 27.575 23.6252 27.75C23.3252 27.925 23.0252 28.075 22.7252 28.2L22.3877 30.675C22.2877 31.325 21.9942 31.875 21.5072 32.325C21.0202 32.775 20.4387 33 19.7627 33H16.2377ZM18.0752 23.25C19.5252 23.25 20.7627 22.7375 21.7877 21.7125C22.8127 20.6875 23.3252 19.45 23.3252 18C23.3252 16.55 22.8127 15.3125 21.7877 14.2875C20.7627 13.2625 19.5252 12.75 18.0752 12.75C16.6002 12.75 15.3562 13.2625 14.3432 14.2875C13.3302 15.3125 12.8242 16.55 12.8252 18C12.8262 19.45 13.3327 20.6875 14.3447 21.7125C15.3567 22.7375 16.6002 23.25 18.0752 23.25Z" fill="#FFF3F3"/>
</svg>
