<svg width="36" height="36" viewBox="0 0 36 36" fill="none" xmlns="http://www.w3.org/2000/svg">
<path d="M24.75 25.5V10.5C24.75 10.075 24.894 9.71901 25.182 9.43201C25.47 9.14501 25.826 9.00101 26.25 9.00001C26.674 8.99901 27.0305 9.14301 27.3195 9.43201C27.6085 9.72101 27.752 10.077 27.75 10.5V25.5C27.75 25.925 27.606 26.2815 27.318 26.5695C27.03 26.8575 26.674 27.001 26.25 27C25.826 26.999 25.47 26.855 25.182 26.568C24.894 26.281 24.75 25.925 24.75 25.5ZM8.25 24.1875V11.8125C8.25 11.3625 8.4 11 8.7 10.725C9 10.45 9.35 10.3125 9.75 10.3125C9.875 10.3125 10.0125 10.325 10.1625 10.35C10.3125 10.375 10.45 10.4375 10.575 10.5375L19.875 16.7625C20.1 16.9125 20.269 17.094 20.382 17.307C20.495 17.52 20.551 17.751 20.55 18C20.549 18.249 20.493 18.4805 20.382 18.6945C20.271 18.9085 20.102 19.0895 19.875 19.2375L10.575 25.4625C10.45 25.5625 10.3125 25.625 10.1625 25.65C10.0125 25.675 9.875 25.6875 9.75 25.6875C9.35 25.6875 9 25.55 8.7 25.275C8.4 25 8.25 24.6375 8.25 24.1875Z" fill="#FFF3F3"/>
</svg>
