<svg width="64" height="64" viewBox="0 0 64 64" fill="none" xmlns="http://www.w3.org/2000/svg">
<path d="M13.3333 15.5414H20.5333M20.5333 15.5414H25.3333M20.5333 15.5414V13.3334M29.3333 15.5414H25.3333M25.3333 15.5414C24.4906 18.5574 22.7199 21.4107 20.7039 23.9174L23.7893 27.1254M15.5626 29.3334C17.4072 27.6578 19.1256 25.8485 20.7039 23.92C19.6773 22.712 18.2373 20.7627 17.8239 19.88M35.9999 50.6667L38.2213 45.3334M38.2213 45.3334L42.6666 34.6667L47.1119 45.3334M38.2213 45.3334H47.1119M49.3333 50.6667L47.1119 45.3334" stroke="#EEEEEE" stroke-width="4" stroke-linecap="round" stroke-linejoin="round"/>
<path d="M37.3333 26.6667V21.3334C37.3333 13.792 37.3333 10.0187 34.9893 7.67737C32.6479 5.33337 28.8746 5.33337 21.3333 5.33337C13.7919 5.33337 10.0186 5.33337 7.67725 7.67737C5.33325 10.0187 5.33325 13.792 5.33325 21.3334C5.33325 28.8747 5.33325 32.648 7.67725 34.9894C10.0186 37.3334 13.7919 37.3334 21.3333 37.3334H26.6666" stroke="#EEEEEE" stroke-width="4" stroke-linecap="round" stroke-linejoin="round"/>
<path d="M10.6665 44.0001C10.6665 47.7441 10.6665 49.6187 11.5652 50.9627C11.9544 51.5453 12.4546 52.0455 13.0372 52.4347C14.3812 53.3334 16.2558 53.3334 19.9998 53.3334M53.3332 20.0001C53.3332 16.2561 53.3332 14.3814 52.4345 13.0374C52.0453 12.4548 51.5451 11.9546 50.9625 11.5654C49.6185 10.6667 47.7438 10.6667 43.9998 10.6667M26.6665 42.6667C26.6665 35.1254 26.6665 31.3521 29.0105 29.0107C31.3518 26.6667 35.1252 26.6667 42.6665 26.6667C50.2078 26.6667 53.9812 26.6667 56.3225 29.0107C58.6665 31.3521 58.6665 35.1254 58.6665 42.6667C58.6665 50.2081 58.6665 53.9814 56.3225 56.3228C53.9812 58.6668 50.2078 58.6667 42.6665 58.6667C35.1252 58.6667 31.3518 58.6668 29.0105 56.3228C26.6665 53.9814 26.6665 50.2081 26.6665 42.6667Z" stroke="#EEEEEE" stroke-width="4" stroke-linecap="round" stroke-linejoin="round"/>
</svg>
