<svg width="36" height="36" viewBox="0 0 36 36" fill="none" xmlns="http://www.w3.org/2000/svg">
<path d="M32.9401 17.1C27.0001 8.82003 15.3001 6.84003 7.02012 12.96C4.86012 14.58 3.06012 16.74 1.62012 19.08C1.98012 19.8 2.52012 20.52 3.06012 21.24C9.00012 29.52 20.3401 31.32 28.6201 25.56C30.2401 24.3 31.6801 23.04 32.9401 21.24C33.4801 20.52 33.8401 19.8 34.3801 19.08C33.8401 18.36 33.4801 17.64 32.9401 17.1ZM18.1801 12.96C19.0801 12.06 20.5201 12.06 21.4201 12.96C22.3201 13.86 22.3201 15.3 21.4201 16.2C20.5201 17.1 19.0801 17.1 18.1801 16.2C17.2801 15.3 17.2801 13.86 18.1801 12.96ZM18.0001 26.82C12.4201 26.82 7.20012 23.94 4.14012 19.26C6.30012 16.2 9.18012 14.04 12.6001 12.96C11.3401 14.4 10.8001 16.02 10.8001 17.82C10.8001 21.78 13.8601 25.2 18.0001 25.2C21.9601 25.2 25.3801 22.14 25.3801 18V17.82C25.3801 16.02 24.6601 14.22 23.4001 12.96C26.8201 14.04 29.7001 16.2 31.8601 19.26C28.8001 23.94 23.5801 26.82 18.0001 26.82Z" fill="#FFF3F3"/>
</svg>
